<svg width="18" height="18" viewBox="0 0 18 18" fill="none" xmlns="http://www.w3.org/2000/svg">
<g clip-path="url(#clip0_2_31)">
<path d="M3.75002 8.25H9.75002V9.75H3.75002V12L1.52588e-05 9L3.75002 6V8.25ZM3.00002 13.5H5.03102C5.89703 14.2638 6.96503 14.7614 8.10686 14.9332C9.24869 15.105 10.4158 14.9437 11.4683 14.4686C12.5207 13.9935 13.4137 13.2249 14.0401 12.2549C14.6665 11.2848 14.9996 10.1547 14.9996 9C14.9996 7.84532 14.6665 6.71516 14.0401 5.74514C13.4137 4.77512 12.5207 4.00646 11.4683 3.53138C10.4158 3.05629 9.24869 2.89498 8.10686 3.0668C6.96503 3.23861 5.89703 3.73625 5.03102 4.5H3.00002C3.69801 3.56788 4.60376 2.81139 5.64532 2.29061C6.68687 1.76983 7.83552 1.49913 9.00002 1.5C13.1423 1.5 16.5 4.85775 16.5 9C16.5 13.1423 13.1423 16.5 9.00002 16.5C7.83552 16.5009 6.68687 16.2302 5.64532 15.7094C4.60376 15.1886 3.69801 14.4321 3.00002 13.5V13.5Z" fill="#FFFAFA"/>
</g>
<defs>
<clipPath id="clip0_2_31">
<rect width="18" height="18" fill="white"/>
</clipPath>
</defs>
</svg>
