<svg width="18" height="18" viewBox="0 0 18 18" fill="none" xmlns="http://www.w3.org/2000/svg">
<path d="M16.3459 15.1534L13.4858 12.2933C14.5401 10.9355 15.0374 9.22698 14.8763 7.51549C14.7153 5.80401 13.908 4.21825 12.6188 3.08105C11.3297 1.94384 9.65563 1.34069 7.93743 1.39438C6.21922 1.44808 4.58607 2.15458 3.37045 3.37006C2.15483 4.58553 1.44815 6.21861 1.39425 7.9368C1.34036 9.655 1.94332 11.3292 3.08038 12.6184C4.21744 13.9077 5.80311 14.7151 7.51457 14.8764C9.22603 15.0377 10.9346 14.5406 12.2925 13.4864L15.1527 16.3466C15.231 16.4251 15.324 16.4873 15.4264 16.5298C15.5288 16.5723 15.6386 16.5942 15.7494 16.5942C15.8603 16.5942 15.9701 16.5724 16.0725 16.53C16.1749 16.4876 16.268 16.4254 16.3464 16.3471C16.4247 16.2687 16.4869 16.1756 16.5293 16.0732C16.5717 15.9708 16.5935 15.861 16.5935 15.7501C16.5935 15.6393 16.5716 15.5295 16.5291 15.4271C16.4866 15.3247 16.4244 15.2317 16.3459 15.1534V15.1534ZM3.09353 8.15623C3.09353 7.15497 3.39044 6.17619 3.94671 5.34367C4.50299 4.51115 5.29364 3.86228 6.21869 3.47911C7.14373 3.09594 8.16163 2.99569 9.14365 3.19102C10.1257 3.38636 11.0277 3.86852 11.7357 4.57652C12.4437 5.28452 12.9259 6.18656 13.1212 7.16859C13.3166 8.15061 13.2163 9.16851 12.8331 10.0936C12.45 11.0186 11.8011 11.8093 10.9686 12.3655C10.1361 12.9218 9.15728 13.2187 8.15601 13.2187C6.81382 13.2172 5.52704 12.6833 4.57797 11.7343C3.6289 10.7852 3.09504 9.49842 3.09353 8.15623V8.15623Z" fill="#FFFDFD"/>
</svg>
