<svg width="18" height="18" viewBox="0 0 18 18" fill="none" xmlns="http://www.w3.org/2000/svg">
<path d="M3.02969 14.0625H10.6159C10.5632 15.0795 9.90778 15.7274 9.00376 15.7274C8.09219 15.7274 7.44432 15.0795 7.38405 14.0625H6.20884C6.26911 15.5089 7.40665 16.7821 9.00376 16.7821C10.5933 16.7821 11.7309 15.5089 11.7911 14.0625H14.9703C15.6859 14.0625 16.1078 13.6934 16.1078 13.151C16.1078 12.3976 15.3469 11.7196 14.6915 11.0491C14.1943 10.5293 14.0587 9.45955 14.006 8.5932C13.9457 5.625 13.1848 3.70395 11.1734 2.98074C10.9248 2.00141 10.1112 1.21793 9.00376 1.21793C7.88879 1.21793 7.08271 2.00141 6.82656 2.98074C4.82268 3.70395 4.05424 5.625 4.00153 8.5932C3.94126 9.45955 3.81317 10.5293 3.30843 11.0491C2.66056 11.7196 1.89215 12.3976 1.89215 13.151C1.89215 13.6934 2.32155 14.0625 3.02969 14.0625ZM3.36118 12.9249V12.8345C3.49679 12.6086 3.94126 12.1716 4.34054 11.7271C4.8754 11.1245 5.13154 10.1602 5.19933 8.68359C5.2596 5.399 6.23896 4.3443 7.5347 3.99777C7.72306 3.95258 7.821 3.85464 7.82852 3.66628C7.85867 2.87528 8.30314 2.32534 9.00376 2.32534C9.69683 2.32534 10.1489 2.87528 10.1714 3.66628C10.179 3.85464 10.2844 3.95258 10.4728 3.99777C11.761 4.3443 12.7404 5.399 12.8082 8.68359C12.8684 10.1602 13.1246 11.1245 13.667 11.7271C14.0587 12.1716 14.5107 12.6086 14.6463 12.8345V12.9249H3.36118Z" fill="#FCF7F7"/>
</svg>
