<svg width="18" height="18" viewBox="0 0 18 18" fill="none" xmlns="http://www.w3.org/2000/svg">
<g clip-path="url(#clip0_2_35)">
<path d="M9.00006 -6.10352e-05C6.5489 -6.19352e-05 4.54981 1.99902 4.54981 4.45019C4.54981 6.90137 6.5489 8.90053 9.00006 8.90053C11.4512 8.90053 13.4504 6.90136 13.4504 4.45019C13.4504 1.99902 11.4512 -5.87852e-05 9.00006 -6.10352e-05ZM9.00006 1.12494C10.8432 1.12494 12.3254 2.60701 12.3254 4.45019C12.3254 6.29337 10.8432 7.77553 9.00006 7.77553C7.1569 7.77553 5.67481 6.29338 5.67481 4.45019C5.67481 2.60701 7.1569 1.12494 9.00006 1.12494ZM8.99961 9.61342C5.05079 9.6144 1.89432 13.1476 1.87731 17.4352L1.87502 17.9999H16.125L16.1227 17.4352C16.1057 13.1473 12.9488 9.61401 8.99977 9.61342H8.99961ZM8.99961 10.7384H9.00006C12.1081 10.739 14.7007 13.4047 14.9703 16.8749H3.03C3.29952 13.405 5.89183 10.7394 8.99962 10.7384H8.99961Z" fill="#FFF9F9"/>
</g>
<defs>
<clipPath id="clip0_2_35">
<rect width="18" height="18" fill="white"/>
</clipPath>
</defs>
</svg>
