<svg width="18" height="18" viewBox="0 0 18 18" fill="none" xmlns="http://www.w3.org/2000/svg">
<path d="M3.84712 16.8085C4.15601 17.042 4.54773 16.9591 5.0148 16.6201L9.00003 13.6971L12.9928 16.6201C13.4599 16.9591 13.8441 17.042 14.1605 16.8085C14.4693 16.5749 14.5372 16.1907 14.3488 15.6408L12.7743 10.9549L16.7972 8.06206C17.2643 7.7306 17.4525 7.38407 17.332 7.00739C17.2115 6.64578 16.8575 6.46498 16.2773 6.4725L11.3429 6.50265L9.84378 1.7942C9.66298 1.23672 9.39176 0.958008 9.00003 0.958008C8.61583 0.958008 8.34461 1.23672 8.16381 1.7942L6.66463 6.50265L1.73022 6.4725C1.15014 6.46498 0.796051 6.64578 0.675516 7.00739C0.547458 7.38407 0.743337 7.7306 1.2104 8.06206L5.23328 10.9549L3.65879 15.6408C3.47043 16.1907 3.53825 16.5749 3.84712 16.8085ZM4.93194 15.3168C4.91686 15.3018 4.92442 15.2942 4.93194 15.249L6.43111 10.9399C6.52905 10.6461 6.47631 10.4125 6.21264 10.2317L2.46095 7.64019C2.42328 7.61759 2.41576 7.60255 2.42328 7.57992C2.43084 7.55732 2.44591 7.55732 2.49111 7.55732L7.04887 7.64019C7.35773 7.64774 7.55361 7.51965 7.65154 7.21079L8.95484 2.84891C8.96988 2.80371 8.98496 2.78864 9.00003 2.78864C9.02263 2.78864 9.03771 2.80371 9.04523 2.84891L10.356 7.21079C10.4465 7.51965 10.6499 7.64774 10.9587 7.64019L15.5164 7.55732C15.5616 7.55732 15.5768 7.55732 15.5843 7.57992C15.5919 7.60255 15.5768 7.61759 15.5467 7.64019L11.795 10.2317C11.5313 10.4125 11.471 10.6461 11.5765 10.9399L13.0757 15.249C13.0832 15.2942 13.0907 15.3018 13.0757 15.3168C13.0606 15.3394 13.038 15.3244 13.0078 15.3018L9.38424 12.537C9.14317 12.3486 8.86442 12.3486 8.62335 12.537L4.99976 15.3018C4.96961 15.3244 4.94701 15.3394 4.93194 15.3168Z" fill="#FFFDFD"/>
</svg>
